<svg width="28" height="27" viewBox="0 0 28 27" fill="none" xmlns="http://www.w3.org/2000/svg">
<g filter="url(#filter0_d_1_490)">
<path d="M13.0489 1.26348C13.3483 0.342167 14.6517 0.342166 14.9511 1.26348L16.4697 5.93724C16.6035 6.34926 16.9875 6.62822 17.4207 6.62822H22.335C23.3037 6.62822 23.7065 7.86784 22.9228 8.43724L18.947 11.3258C18.5966 11.5804 18.4499 12.0318 18.5838 12.4438L20.1024 17.1176C20.4017 18.0389 19.3472 18.805 18.5635 18.2356L14.5878 15.3471C14.2373 15.0924 13.7627 15.0924 13.4122 15.3471L9.43648 18.2356C8.65276 18.805 7.59828 18.0389 7.89763 17.1176L9.41623 12.4438C9.55011 12.0318 9.40345 11.5804 9.05296 11.3258L5.07722 8.43724C4.29351 7.86784 4.69628 6.62822 5.66501 6.62822H10.5793C11.0125 6.62822 11.3965 6.34926 11.5303 5.93724L13.0489 1.26348Z" fill="#D9D9D9"/>
</g>
<defs>
<filter id="filter0_d_1_490" x="0.663086" y="0.572479" width="26.6738" height="25.8586" filterUnits="userSpaceOnUse" color-interpolation-filters="sRGB">
<feFlood flood-opacity="0" result="BackgroundImageFix"/>
<feColorMatrix in="SourceAlpha" type="matrix" values="0 0 0 0 0 0 0 0 0 0 0 0 0 0 0 0 0 0 127 0" result="hardAlpha"/>
<feOffset dy="4"/>
<feGaussianBlur stdDeviation="2"/>
<feComposite in2="hardAlpha" operator="out"/>
<feColorMatrix type="matrix" values="0 0 0 0 0 0 0 0 0 0 0 0 0 0 0 0 0 0 0.25 0"/>
<feBlend mode="normal" in2="BackgroundImageFix" result="effect1_dropShadow_1_490"/>
<feBlend mode="normal" in="SourceGraphic" in2="effect1_dropShadow_1_490" result="shape"/>
</filter>
</defs>
</svg>
